<svg width="960" height="720" xmlns="http://www.w3.org/2000/svg" xmlns:xlink="http://www.w3.org/1999/xlink" overflow="hidden"><g><rect x="0" y="0" width="960" height="720" fill="#FFFFFF"/><path d="M495.216 362.5 351.286 314.565 382.071 314.565C361.911 311.23 339.898 309.5 317.608 309.5L370.608 309.5C392.897 309.5 414.911 311.23 435.07 314.565L465.855 314.565Z" fill="#FFFFFF" fill-rule="evenodd"/><path d="M344.108 310.322C272.011 314.826 219.5 336.815 219.5 362.5L166.5 362.5C166.5 333.229 234.153 309.5 317.608 309.5 326.493 309.5 335.36 309.775 344.108 310.321Z" fill="#CDCDCD" fill-rule="evenodd"/><path d="M344.108 310.322C272.011 314.826 219.5 336.815 219.5 362.5L166.5 362.5C166.5 333.229 234.153 309.5 317.608 309.5L370.608 309.5C392.897 309.5 414.911 311.23 435.07 314.565L465.855 314.565 495.216 362.5 351.286 314.565 382.071 314.565C361.911 311.23 339.898 309.5 317.608 309.5" stroke="#000000" stroke-width="0.982677" stroke-miterlimit="8" fill="none" fill-rule="evenodd"/><path d="M38.5001 75.5001 573.5 76.5001" stroke="#000000" stroke-width="0.982677" stroke-linejoin="round" stroke-miterlimit="10" fill="none" fill-rule="evenodd"/><rect x="294.5" y="60.5001" width="60" height="15" stroke="#000000" stroke-width="0.982677" stroke-miterlimit="8" fill="#B8CCE4"/><rect x="354.5" y="60.5001" width="45" height="15" stroke="#000000" stroke-width="0.982677" stroke-miterlimit="8" fill="#E5B8B7"/><rect x="399.5" y="60.5001" width="45" height="15" stroke="#000000" stroke-width="0.982677" stroke-miterlimit="8" fill="#D6E3BC"/><rect x="445.5" y="60.5001" width="37" height="15" stroke="#000000" stroke-width="0.982677" stroke-miterlimit="8" fill="#CCC0D9"/><rect x="482.5" y="60.5001" width="45" height="15" stroke="#000000" stroke-width="0.982677" stroke-miterlimit="8" fill="#B6DDE8"/><rect x="527.5" y="60.5001" width="38" height="15" stroke="#000000" stroke-width="0.982677" stroke-miterlimit="8" fill="#FBD4B4"/><text font-family="Calibri,Calibri_MSFontService,sans-serif" font-weight="400" font-size="7" transform="translate(301.455 70)">In vol side faces top/bot faces horiz edges vert edges vertices</text><text font-family="Calibri,Calibri_MSFontService,sans-serif" font-weight="400" font-size="15" transform="translate(290.509 117)">0</text><rect x="264.5" y="60.5001" width="30" height="15" stroke="#000000" stroke-width="0.982677" stroke-miterlimit="8" fill="#DBE5F1"/><rect x="241.5" y="60.5001" width="23" height="15" stroke="#000000" stroke-width="0.982677" stroke-miterlimit="8" fill="#F2DBDB"/><rect x="211.5" y="60.5001" width="30" height="15" stroke="#000000" stroke-width="0.982677" stroke-miterlimit="8" fill="#EAF1DD"/><rect x="188.5" y="60.5001" width="23" height="15" stroke="#000000" stroke-width="0.982677" stroke-miterlimit="8" fill="#E5DFEC"/><rect x="158.5" y="60.5001" width="30" height="15" stroke="#000000" stroke-width="0.982677" stroke-miterlimit="8" fill="#DAEEF3"/><rect x="128.5" y="60.5001" width="30" height="15" stroke="#000000" stroke-width="0.982677" stroke-miterlimit="8" fill="#FDE9D9"/><text font-family="Calibri,Calibri_MSFontService,sans-serif" font-weight="400" font-size="11" transform="translate(318.387 98)">Owned dofs</text><text font-family="Calibri,Calibri_MSFontService,sans-serif" font-weight="400" font-size="11" transform="translate(197.783 98)">Annex/Halo dofs</text><path d="M128.5 56.5001C128.5 53.4625 134.554 51.0001 142.022 51.0001L197.978 51.0001C205.446 51.0001 211.5 48.5377 211.5 45.5001 211.5 48.5377 217.554 51.0001 225.022 51.0001L280.978 51.0001C288.446 51.0001 294.5 53.4625 294.5 56.5001" stroke="#000000" stroke-width="0.982677" stroke-linejoin="round" stroke-miterlimit="10" fill="none" fill-rule="evenodd"/><text font-family="Calibri,Calibri_MSFontService,sans-serif" font-weight="400" font-size="11" transform="translate(160.403 37)">Cell 1: annex dof columns</text><path d="M294.5 56.5001C294.5 53.4624 304.369 50.9999 316.543 50.9999L407.957 51.0002C420.131 51.0002 430 48.5377 430 45.5001 430 48.5377 439.869 51.0002 452.043 51.0002L543.457 51.0002C555.631 51.0002 565.5 53.4627 565.5 56.5004" stroke="#000000" stroke-width="0.982677" stroke-linejoin="round" stroke-miterlimit="10" fill="none" fill-rule="evenodd"/><text font-family="Calibri,Calibri_MSFontService,sans-serif" font-weight="400" font-size="11" transform="translate(371.074 37)">Cell 1: owned dof columns</text><text font-family="Calibri,Calibri_MSFontService,sans-serif" font-weight="400" font-size="11" transform="translate(24.5291 15)">a)</text><path d="M39.5001 211.5 573.5 212.5" stroke="#000000" stroke-width="0.982677" stroke-linejoin="round" stroke-miterlimit="10" fill="none" fill-rule="evenodd"/><rect x="294.5" y="196.5" width="38" height="15" stroke="#000000" stroke-width="0.982677" stroke-miterlimit="8" fill="#B8CCE4"/><text font-family="Calibri,Calibri_MSFontService,sans-serif" font-weight="400" font-size="15" transform="translate(290.585 252)">0</text><rect x="264.5" y="196.5" width="30" height="15" stroke="#000000" stroke-width="0.982677" stroke-miterlimit="8" fill="#DBE5F1"/><text font-family="Calibri,Calibri_MSFontService,sans-serif" font-weight="400" font-size="11" transform="translate(326.249 245)">Owned dofs</text><text font-family="Calibri,Calibri_MSFontService,sans-serif" font-weight="400" font-size="11" transform="translate(213.317 245)">Annex dofs</text><rect x="332.5" y="196.5" width="38" height="15" stroke="#000000" stroke-width="0.982677" stroke-miterlimit="8" fill="#B8CCE4"/><rect x="370.5" y="196.5" width="38" height="15" stroke="#000000" stroke-width="0.982677" stroke-miterlimit="8" fill="#B8CCE4"/><rect x="437.5" y="196.5" width="46" height="15" stroke="#000000" stroke-width="0.982677" stroke-miterlimit="8" fill="#B8CCE4"/><rect x="113.5" y="196.5" width="30" height="15" stroke="#000000" stroke-width="0.982677" stroke-miterlimit="8" fill="#DBE5F1"/><rect x="143.5" y="196.5" width="30" height="15" stroke="#000000" stroke-width="0.982677" stroke-miterlimit="8" fill="#DBE5F1"/><rect x="204.5" y="196.5" width="30" height="15" stroke="#000000" stroke-width="0.982677" stroke-miterlimit="8" fill="#DBE5F1"/><rect x="234.5" y="196.5" width="30" height="15" stroke="#000000" stroke-width="0.982677" stroke-miterlimit="8" fill="#DBE5F1"/><rect x="53.5001" y="196.5" width="30" height="15" stroke="#000000" stroke-width="0.982677" stroke-miterlimit="8" fill="#DBE5F1"/><text font-family="Calibri,Calibri_MSFontService,sans-serif" font-weight="400" font-size="15" transform="translate(93.7263 206)">...</text><text font-family="Calibri,Calibri_MSFontService,sans-serif" font-weight="400" font-size="11" transform="translate(24.9071 165)">b)</text><path d="M38.5001 399.5 573.5 400.5" stroke="#000000" stroke-width="0.982677" stroke-linejoin="round" stroke-miterlimit="10" fill="none" fill-rule="evenodd"/><rect x="294.5" y="384.5" width="172" height="15" stroke="#000000" stroke-width="0.982677" stroke-miterlimit="8" fill="#B8CCE4"/><text font-family="Calibri,Calibri_MSFontService,sans-serif" font-weight="400" font-size="15" transform="translate(290.509 441)">0</text><rect x="91.5001" y="384.5" width="203" height="15" stroke="#000000" stroke-width="0.982677" stroke-miterlimit="8" fill="#DBE5F1"/><text font-family="Calibri,Calibri_MSFontService,sans-serif" font-weight="400" font-size="11" transform="translate(318.387 422)">Owned dofs</text><text font-family="Calibri,Calibri_MSFontService,sans-serif" font-weight="400" font-size="11" transform="translate(197.783 422)">Annex/Halo dofs</text><text font-family="Calibri,Calibri_MSFontService,sans-serif" font-weight="400" font-size="11" transform="translate(25.5118 316)">c)</text><text font-family="Calibri,Calibri_MSFontService,sans-serif" font-weight="400" font-size="11" transform="translate(190.942 354)">Flip</text><text font-family="Calibri,Calibri_MSFontService,sans-serif" font-weight="400" font-size="15" transform="translate(184.473 206)">...</text><text font-family="Calibri,Calibri_MSFontService,sans-serif" font-weight="400" font-size="7" transform="translate(228.913 206)">Owned cells</text><text font-family="Calibri,Calibri_MSFontService,sans-serif" font-weight="400" font-size="11" transform="translate(92.3717 245)">Halo dofs</text><path d="M12 121C8.68629 121 6 116.238 6 110.365L6 71.1353C6 65.2616 3.31371 60.5 9.6281e-16 60.5 3.31371 60.5 6 55.7384 6 49.8647L6 10.6353C6 4.76157 8.68629 0 12 0" stroke="#000000" stroke-width="0.982677" stroke-linejoin="round" stroke-miterlimit="10" fill="none" fill-rule="evenodd" transform="matrix(-1.83697e-16 -1 -1 1.83697e-16 294.5 230.5)"/><path d="M12 120C8.68629 120 6 115.238 6 109.365L6 70.6353C6 64.7616 3.31371 60 9.5485e-16 60 3.31371 60 6 55.2384 6 49.3647L6 10.6353C6 4.76159 8.68629 0 12 0" stroke="#000000" stroke-width="0.982677" stroke-linejoin="round" stroke-miterlimit="10" fill="none" fill-rule="evenodd" transform="matrix(-1.83697e-16 -1 -1 1.83697e-16 173.5 230.5)"/><text font-family="Calibri,Calibri_MSFontService,sans-serif" font-weight="400" font-size="7" transform="translate(297.676 206)">Cell 1 Cell 2 Cell 3</text><text font-family="Calibri,Calibri_MSFontService,sans-serif" font-weight="400" font-size="15" transform="translate(417.256 206)">...</text><text font-family="Calibri,Calibri_MSFontService,sans-serif" font-weight="400" font-size="7" transform="translate(435.996 206)">Last Owned Cell</text><text font-family="Calibri,Calibri_MSFontService,sans-serif" font-weight="400" font-size="7" transform="translate(128.466 206)">Halo cells</text><path d="M38.5001 542.5 573.5 543.5" stroke="#000000" stroke-width="0.982677" stroke-linejoin="round" stroke-miterlimit="10" fill="none" fill-rule="evenodd"/><path d="M0 0 1 60" stroke="#000000" stroke-width="2.00315" stroke-linecap="round" stroke-linejoin="round" stroke-miterlimit="10" stroke-dasharray="14.022 8.0126" fill="none" fill-rule="evenodd" transform="matrix(-1 0 0 1 106 505)"/><text font-family="Calibri,Calibri_MSFontService,sans-serif" font-weight="400" font-size="15" transform="translate(101.457 584)">0</text><text font-family="Calibri,Calibri_MSFontService,sans-serif" font-weight="400" font-size="11" transform="translate(174.576 572)">Owned dofs</text><text font-family="Calibri,Calibri_MSFontService,sans-serif" font-weight="400" font-size="11" transform="translate(290.756 565)">Annexed</text><text font-family="Calibri,Calibri_MSFontService,sans-serif" font-weight="400" font-size="11" transform="translate(300.569 578)">dofs</text><text font-family="Calibri,Calibri_MSFontService,sans-serif" font-weight="400" font-size="11" transform="translate(24.5291 497)">d)</text><rect x="106.5" y="527.5" width="172" height="15" stroke="#000000" stroke-width="0.982677" stroke-miterlimit="8" fill="#B8CCE4"/><rect x="277.5" y="527.5" width="63" height="15" stroke="#000000" stroke-width="0.982677" stroke-miterlimit="8" fill="#DBE5F1"/><rect x="429.5" y="527.5" width="52" height="15" stroke="#000000" stroke-width="0.982677" stroke-miterlimit="8" fill="#DBE5F1"/><rect x="340.5" y="527.5" width="60" height="15" stroke="#000000" stroke-width="0.982677" stroke-miterlimit="8" fill="#DBE5F1"/><text font-family="Calibri,Calibri_MSFontService,sans-serif" font-weight="400" font-size="11" transform="translate(351.42 565)">Halo dofs</text><text font-family="Calibri,Calibri_MSFontService,sans-serif" font-weight="400" font-size="11" transform="translate(350.587 578)">(depth=1)</text><text font-family="Calibri,Calibri_MSFontService,sans-serif" font-weight="400" font-size="11" transform="translate(434.418 565)">Halo dofs</text><text font-family="Calibri,Calibri_MSFontService,sans-serif" font-weight="400" font-size="11" transform="translate(433.418 578)">(depth=n)</text><text font-family="Calibri,Calibri_MSFontService,sans-serif" font-weight="400" font-size="15" transform="translate(409.128 538)">...</text><path d="M0 0 1 60" stroke="#000000" stroke-width="2.00315" stroke-linecap="round" stroke-linejoin="round" stroke-miterlimit="10" stroke-dasharray="14.022 8.0126" fill="none" fill-rule="evenodd" transform="matrix(-1 0 0 1 295 362)"/><path d="M0 0 1 60" stroke="#000000" stroke-width="2.00315" stroke-linecap="round" stroke-linejoin="round" stroke-miterlimit="10" stroke-dasharray="14.022 8.0126" fill="none" fill-rule="evenodd" transform="matrix(-1 0 0 1 295 38)"/><path d="M0 0 1 60" stroke="#000000" stroke-width="2.00315" stroke-linecap="round" stroke-linejoin="round" stroke-miterlimit="10" stroke-dasharray="14.022 8.0126" fill="none" fill-rule="evenodd" transform="matrix(-1 0 0 1 295 173)"/></g></svg>