<svg width="605" height="605" xmlns="http://www.w3.org/2000/svg" xmlns:xlink="http://www.w3.org/1999/xlink" overflow="hidden"><g><rect x="0" y="0" width="605" height="604.833" fill="#FFFFFF"/><path d="M492.216 372.397 348.573 324.475 379.357 324.475C359.264 321.141 337.324 319.412 315.108 319.412L368.108 319.412C390.324 319.412 412.265 321.141 432.357 324.475L463.142 324.475Z" fill="#FFFFFF" fill-rule="evenodd"/><path d="M341.608 320.239C269.79 324.755 217.5 346.731 217.5 372.397L164.5 372.397C164.5 343.134 231.93 319.412 315.108 319.412 323.993 319.412 332.861 319.689 341.608 320.239Z" fill="#CDCDCD" fill-rule="evenodd"/><path d="M341.608 320.239C269.79 324.755 217.5 346.731 217.5 372.397L164.5 372.397C164.5 343.134 231.93 319.412 315.108 319.412L368.108 319.412C390.324 319.412 412.265 321.141 432.357 324.475L463.142 324.475 492.216 372.397 348.573 324.475 379.357 324.475C359.264 321.141 337.324 319.412 315.108 319.412" stroke="#000000" stroke-width="0.983219" stroke-miterlimit="8" fill="none" fill-rule="evenodd"/><path d="M35.5 85.4765 570.5 86.4761" stroke="#000000" stroke-width="0.983219" stroke-linejoin="round" stroke-miterlimit="10" fill="none" fill-rule="evenodd"/><rect x="292.5" y="70.4806" width="60.0001" height="14.9958" stroke="#000000" stroke-width="0.983219" stroke-miterlimit="8" fill="#B8CCE4"/><rect x="352.5" y="70.4806" width="44.9999" height="14.9958" stroke="#000000" stroke-width="0.983219" stroke-miterlimit="8" fill="#E5B8B7"/><rect x="397.5" y="70.4806" width="45" height="14.9958" stroke="#000000" stroke-width="0.983219" stroke-miterlimit="8" fill="#D6E3BC"/><rect x="442.5" y="70.4806" width="38" height="14.9958" stroke="#000000" stroke-width="0.983219" stroke-miterlimit="8" fill="#CCC0D9"/><rect x="480.5" y="70.4806" width="45" height="14.9958" stroke="#000000" stroke-width="0.983219" stroke-miterlimit="8" fill="#B6DDE8"/><rect x="525.5" y="70.4806" width="37.9999" height="14.9958" stroke="#000000" stroke-width="0.983219" stroke-miterlimit="8" fill="#FBD4B4"/><text font-family="Calibri,Calibri_MSFontService,sans-serif" font-weight="400" font-size="7" transform="matrix(1 0 0 0.999724 294.882 80)">i</text><text font-family="Calibri,Calibri_MSFontService,sans-serif" font-weight="400" font-size="7" transform="matrix(1 0 0 0.999724 296.37 80)">n vol</text><text font-family="Calibri,Calibri_MSFontService,sans-serif" font-weight="400" font-size="15" transform="matrix(1 0 0 0.999724 288.199 126)">0</text><rect x="261.5" y="70.4806" width="30" height="14.9958" stroke="#000000" stroke-width="0.983219" stroke-miterlimit="8" fill="#DBE5F1"/><rect x="239.5" y="70.4806" width="22" height="14.9958" stroke="#000000" stroke-width="0.983219" stroke-miterlimit="8" fill="#F2DBDB"/><rect x="209.5" y="70.4806" width="30" height="14.9958" stroke="#000000" stroke-width="0.983219" stroke-miterlimit="8" fill="#EAF1DD"/><rect x="186.5" y="70.4806" width="23" height="14.9958" stroke="#000000" stroke-width="0.983219" stroke-miterlimit="8" fill="#E5DFEC"/><rect x="156.5" y="70.4806" width="30" height="14.9958" stroke="#000000" stroke-width="0.983219" stroke-miterlimit="8" fill="#DAEEF3"/><rect x="126.5" y="70.4806" width="29.9999" height="14.9958" stroke="#000000" stroke-width="0.983219" stroke-miterlimit="8" fill="#FDE9D9"/><text font-family="Calibri,Calibri_MSFontService,sans-serif" font-weight="400" font-size="11" transform="matrix(1 0 0 0.999724 316.093 107)">Owned dofs</text><text font-family="Calibri,Calibri_MSFontService,sans-serif" font-weight="400" font-size="11" transform="matrix(1 0 0 0.999724 195.422 107)">Annex/Halo dofs</text><path d="M126.5 66.4817C126.5 63.4449 132.554 60.9831 140.022 60.9831L195.978 60.9833C203.446 60.9833 209.5 58.5215 209.5 55.4847 209.5 58.5215 215.554 60.9833 223.022 60.9833L278.978 60.9833C286.446 60.9833 292.5 63.4451 292.5 66.4819" stroke="#000000" stroke-width="0.982948" stroke-linejoin="round" stroke-miterlimit="10" fill="none" fill-rule="evenodd"/><text font-family="Calibri,Calibri_MSFontService,sans-serif" font-weight="400" font-size="11" transform="matrix(1 0 0 0.999724 158.022 47)">Cell 1: annex dof columns</text><path d="M292.5 66.4818C292.5 63.445 302.369 60.9833 314.543 60.9833L405.957 60.9833C418.131 60.9833 428 58.5215 428 55.4847 428 58.5215 437.869 60.9833 450.043 60.9833L541.457 60.9833C553.631 60.9833 563.5 63.445 563.5 66.4818" stroke="#000000" stroke-width="0.982948" stroke-linejoin="round" stroke-miterlimit="10" fill="none" fill-rule="evenodd"/><text font-family="Calibri,Calibri_MSFontService,sans-serif" font-weight="400" font-size="11" transform="matrix(1 0 0 0.999724 368.809 47)">Cell 1: owned dof columns</text><text font-family="Calibri,Calibri_MSFontService,sans-serif" font-weight="400" font-size="11" transform="matrix(1 0 0 0.999724 22.0728 24)">a)</text><path d="M36.5 221.439 571.5 222.439" stroke="#000000" stroke-width="0.983219" stroke-linejoin="round" stroke-miterlimit="10" fill="none" fill-rule="evenodd"/><rect x="292.5" y="206.443" width="38.0001" height="14.9958" stroke="#000000" stroke-width="0.983219" stroke-miterlimit="8" fill="#B8CCE4"/><text font-family="Calibri,Calibri_MSFontService,sans-serif" font-weight="400" font-size="15" transform="matrix(1 0 0 0.999724 288.275 262)">0</text><rect x="261.5" y="206.443" width="31" height="14.9958" stroke="#000000" stroke-width="0.983219" stroke-miterlimit="8" fill="#DBE5F1"/><text font-family="Calibri,Calibri_MSFontService,sans-serif" font-weight="400" font-size="11" transform="matrix(1 0 0 0.999724 323.959 254)">Owned dofs</text><text font-family="Calibri,Calibri_MSFontService,sans-serif" font-weight="400" font-size="11" transform="matrix(1 0 0 0.999724 210.964 254)">Annex dofs</text><rect x="330.5" y="206.443" width="38.0001" height="14.9958" stroke="#000000" stroke-width="0.983219" stroke-miterlimit="8" fill="#B8CCE4"/><rect x="368.5" y="206.443" width="37.9999" height="14.9958" stroke="#000000" stroke-width="0.983219" stroke-miterlimit="8" fill="#B8CCE4"/><rect x="435.5" y="206.443" width="45" height="14.9958" stroke="#000000" stroke-width="0.983219" stroke-miterlimit="8" fill="#B8CCE4"/><rect x="111.5" y="206.443" width="30" height="14.9958" stroke="#000000" stroke-width="0.983219" stroke-miterlimit="8" fill="#DBE5F1"/><rect x="141.5" y="206.443" width="29.9999" height="14.9958" stroke="#000000" stroke-width="0.983219" stroke-miterlimit="8" fill="#DBE5F1"/><rect x="202.5" y="206.443" width="29.9999" height="14.9958" stroke="#000000" stroke-width="0.983219" stroke-miterlimit="8" fill="#DBE5F1"/><rect x="231.5" y="206.443" width="30" height="14.9958" stroke="#000000" stroke-width="0.983219" stroke-miterlimit="8" fill="#DBE5F1"/><rect x="50.5" y="206.443" width="30" height="14.9958" stroke="#000000" stroke-width="0.983219" stroke-miterlimit="8" fill="#DBE5F1"/><text font-family="Calibri,Calibri_MSFontService,sans-serif" font-weight="400" font-size="15" transform="matrix(1 0 0 0.999724 91.3082 216)">...</text><text font-family="Calibri,Calibri_MSFontService,sans-serif" font-weight="400" font-size="11" transform="matrix(1 0 0 0.999724 22.451 175)">b)</text><path d="M35.5 409.387 570.5 410.387" stroke="#000000" stroke-width="0.983219" stroke-linejoin="round" stroke-miterlimit="10" fill="none" fill-rule="evenodd"/><rect x="292.5" y="394.391" width="172" height="14.9958" stroke="#000000" stroke-width="0.983219" stroke-miterlimit="8" fill="#B8CCE4"/><text font-family="Calibri,Calibri_MSFontService,sans-serif" font-weight="400" font-size="15" transform="matrix(1 0 0 0.999724 288.199 450)">0</text><rect x="89.5" y="394.391" width="203" height="14.9958" stroke="#000000" stroke-width="0.983219" stroke-miterlimit="8" fill="#DBE5F1"/><text font-family="Calibri,Calibri_MSFontService,sans-serif" font-weight="400" font-size="11" transform="matrix(1 0 0 0.999724 316.093 431)">Owned dofs</text><text font-family="Calibri,Calibri_MSFontService,sans-serif" font-weight="400" font-size="11" transform="matrix(1 0 0 0.999724 195.422 431)">Annex/Halo dofs</text><text font-family="Calibri,Calibri_MSFontService,sans-serif" font-weight="400" font-size="11" transform="matrix(1 0 0 0.999724 23.0561 326)">c)</text><text font-family="Calibri,Calibri_MSFontService,sans-serif" font-weight="400" font-size="11" transform="matrix(1 0 0 0.999724 188.577 363)">Flip</text><text font-family="Calibri,Calibri_MSFontService,sans-serif" font-weight="400" font-size="15" transform="matrix(1 0 0 0.999724 182.105 216)">...</text><text font-family="Calibri,Calibri_MSFontService,sans-serif" font-weight="400" font-size="7" transform="matrix(1 0 0 0.999724 226.57 215)">Owned cells</text><text font-family="Calibri,Calibri_MSFontService,sans-serif" font-weight="400" font-size="11" transform="matrix(1 0 0 0.999724 89.9528 254)">Halo dofs</text><path d="M11.9967 119.967C8.68386 119.967 5.99828 115.207 5.99828 109.335L5.99841 70.6158C5.99841 64.7437 3.31283 59.9835 9.54597e-16 59.9835 3.31283 59.9835 5.99841 55.2233 5.99841 49.3513L5.99841 10.6322C5.99841 4.76022 8.68399 0 11.9968 0" stroke="#000000" stroke-width="0.982948" stroke-linejoin="round" stroke-miterlimit="10" fill="none" fill-rule="evenodd" transform="matrix(-1.83748e-16 -1 -1.00028 1.83697e-16 291.5 240.434)"/><path d="M11.9967 120.967C8.6839 120.967 5.99835 116.206 5.99835 110.334L5.99835 71.1157C5.99835 65.2436 3.31279 60.4833 9.62545e-16 60.4833 3.31279 60.4833 5.99835 55.7231 5.99835 49.851L5.99835 10.6323C5.99835 4.76026 8.6839 0 11.9967 0" stroke="#000000" stroke-width="0.982948" stroke-linejoin="round" stroke-miterlimit="10" fill="none" fill-rule="evenodd" transform="matrix(-1.83748e-16 -1 -1.00028 1.83697e-16 171.5 240.434)"/><text font-family="Calibri,Calibri_MSFontService,sans-serif" font-weight="400" font-size="7" transform="matrix(1 0 0 0.999724 436.247 215)">Last</text><text font-family="Calibri,Calibri_MSFontService,sans-serif" font-weight="400" font-size="7" transform="matrix(1 0 0 0.999724 448.521 215)">Owned Cell</text><text font-family="Calibri,Calibri_MSFontService,sans-serif" font-weight="400" font-size="7" transform="matrix(1 0 0 0.999724 126.067 215)">Halo cells</text><path d="M35.5 552.348 570.5 553.347" stroke="#000000" stroke-width="0.983219" stroke-linejoin="round" stroke-miterlimit="10" fill="none" fill-rule="evenodd"/><path d="M0 0 0.999645 59.9835" stroke="#000000" stroke-width="2.0037" stroke-linecap="round" stroke-linejoin="round" stroke-miterlimit="10" stroke-dasharray="14.0259 8.01481" fill="none" fill-rule="evenodd" transform="matrix(-1.00028 0 0 1 103 514.858)"/><text font-family="Calibri,Calibri_MSFontService,sans-serif" font-weight="400" font-size="15" transform="matrix(1 0 0 0.999724 99.0431 593)">0</text><text font-family="Calibri,Calibri_MSFontService,sans-serif" font-weight="400" font-size="11" transform="matrix(1 0 0 0.999724 172.203 582)">Owned dofs</text><text font-family="Calibri,Calibri_MSFontService,sans-serif" font-weight="400" font-size="11" transform="matrix(1 0 0 0.999724 288.446 574)">Annexed</text><text font-family="Calibri,Calibri_MSFontService,sans-serif" font-weight="400" font-size="11" transform="matrix(1 0 0 0.999724 298.265 587)">dofs</text><text font-family="Calibri,Calibri_MSFontService,sans-serif" font-weight="400" font-size="11" transform="matrix(1 0 0 0.999724 22.0728 507)">d)</text><rect x="103.5" y="537.352" width="173" height="14.9958" stroke="#000000" stroke-width="0.983219" stroke-miterlimit="8" fill="#B8CCE4"/><rect x="275.5" y="537.352" width="63" height="14.9958" stroke="#000000" stroke-width="0.983219" stroke-miterlimit="8" fill="#DBE5F1"/><rect x="427.5" y="537.352" width="52" height="14.9958" stroke="#000000" stroke-width="0.983219" stroke-miterlimit="8" fill="#DBE5F1"/><rect x="338.5" y="537.352" width="59" height="14.9958" stroke="#000000" stroke-width="0.983219" stroke-miterlimit="8" fill="#DBE5F1"/><text font-family="Calibri,Calibri_MSFontService,sans-serif" font-weight="400" font-size="11" transform="matrix(1 0 0 0.999724 349.144 574)">Halo dofs</text><text font-family="Calibri,Calibri_MSFontService,sans-serif" font-weight="400" font-size="11" transform="matrix(1 0 0 0.999724 348.31 587)">(depth=1)</text><text font-family="Calibri,Calibri_MSFontService,sans-serif" font-weight="400" font-size="11" transform="matrix(1 0 0 0.999724 432.188 574)">Halo dofs</text><text font-family="Calibri,Calibri_MSFontService,sans-serif" font-weight="400" font-size="11" transform="matrix(1 0 0 0.999724 431.188 587)">(depth=n)</text><text font-family="Calibri,Calibri_MSFontService,sans-serif" font-weight="400" font-size="15" transform="matrix(1 0 0 0.999724 406.884 547)">...</text><path d="M0 0 0.99975 59.9835" stroke="#000000" stroke-width="2.0037" stroke-linecap="round" stroke-linejoin="round" stroke-miterlimit="10" stroke-dasharray="14.0259 8.01481" fill="none" fill-rule="evenodd" transform="matrix(-1.00028 0 0 1 292 371.898)"/><path d="M0 0 0.99975 60.9832" stroke="#000000" stroke-width="2.0037" stroke-linecap="round" stroke-linejoin="round" stroke-miterlimit="10" stroke-dasharray="14.0259 8.01481" fill="none" fill-rule="evenodd" transform="matrix(-1.00028 0 0 1 292 46.987)"/><path d="M0 0 0.999645 59.9835" stroke="#000000" stroke-width="2.0037" stroke-linecap="round" stroke-linejoin="round" stroke-miterlimit="10" stroke-dasharray="14.0259 8.01481" fill="none" fill-rule="evenodd" transform="matrix(-1.00028 0 0 1 293 182.95)"/><text font-family="Calibri,Calibri_MSFontService,sans-serif" font-weight="400" font-size="7" transform="matrix(1 0 0 0.999724 332.724 215)">Cel</text><text font-family="Calibri,Calibri_MSFontService,sans-serif" font-weight="400" font-size="7" transform="matrix(1 0 0 0.999724 341.022 215)">l 2</text><text font-family="Calibri,Calibri_MSFontService,sans-serif" font-weight="400" font-size="7" transform="matrix(1 0 0 0.999724 371.412 215)">Cell 3</text><text font-family="Calibri,Calibri_MSFontService,sans-serif" font-weight="400" font-size="15" transform="matrix(1 0 0 0.999724 412.634 215)">...</text><text font-family="Calibri,Calibri_MSFontService,sans-serif" font-weight="400" font-size="7" transform="matrix(1 0 0 0.999724 294.569 215)">Cell</text><text font-family="Calibri,Calibri_MSFontService,sans-serif" font-weight="400" font-size="7" transform="matrix(1 0 0 0.999724 305.842 215)">1</text><text font-family="Calibri,Calibri_MSFontService,sans-serif" font-weight="400" font-size="7" transform="matrix(1 0 0 0.999724 354.382 80)">s</text><text font-family="Calibri,Calibri_MSFontService,sans-serif" font-weight="400" font-size="7" transform="matrix(1 0 0 0.999724 357.037 80)">ide</text><text font-family="Calibri,Calibri_MSFontService,sans-serif" font-weight="400" font-size="7" transform="matrix(1 0 0 0.999724 366.822 80)">faces</text><text font-family="Calibri,Calibri_MSFontService,sans-serif" font-weight="400" font-size="7" transform="matrix(1 0 0 0.999724 400.007 79)">top</text><text font-family="Calibri,Calibri_MSFontService,sans-serif" font-weight="400" font-size="7" transform="matrix(1 0 0 0.999724 409.139 79)">/bot</text><text font-family="Calibri,Calibri_MSFontService,sans-serif" font-weight="400" font-size="7" transform="matrix(1 0 0 0.999724 422.246 79)">faces</text><text font-family="Calibri,Calibri_MSFontService,sans-serif" font-weight="400" font-size="7" transform="matrix(1 0 0 0.999724 444.832 79)">horiz</text><text font-family="Calibri,Calibri_MSFontService,sans-serif" font-weight="400" font-size="7" transform="matrix(1 0 0 0.999724 459.76 79)">edges</text><text font-family="Calibri,Calibri_MSFontService,sans-serif" font-weight="400" font-size="7" transform="matrix(1 0 0 0.999724 482.186 79)">vert edges</text><text font-family="Calibri,Calibri_MSFontService,sans-serif" font-weight="400" font-size="7" transform="matrix(1 0 0 0.999724 528.344 79)">vertices</text></g></svg>