<svg width="454" height="454" xmlns="http://www.w3.org/2000/svg" xmlns:xlink="http://www.w3.org/1999/xlink" overflow="hidden"><g><rect x="0" y="0" width="454" height="454" fill="#FFFFFF"/><text font-family="Calibri,Calibri_MSFontService,sans-serif" font-weight="400" font-size="82" transform="matrix(1 0 0 1 288.922 355)">P1</text><rect x="331.5" y="263.5" width="65" height="65.0001" stroke="#000000" stroke-width="1.3348" stroke-linejoin="round" stroke-miterlimit="10" fill="#B4C7E7" fill-opacity="0.85098"/><text font-family="Calibri,Calibri_MSFontService,sans-serif" font-weight="400" font-size="19" transform="matrix(1 0 0 1 358.64 302)">8</text><text font-family="Calibri,Calibri_MSFontService,sans-serif" font-weight="400" font-size="82" transform="matrix(1 0 0 1 59.9959 354)">P0</text><rect x="102.5" y="263.5" width="65" height="64" stroke="#000000" stroke-width="1.3348" stroke-linejoin="round" stroke-miterlimit="10" fill="#B4C7E7" fill-opacity="0.85098"/><text font-family="Calibri,Calibri_MSFontService,sans-serif" font-weight="400" font-size="19" transform="matrix(1 0 0 1 129.714 302)">6</text><text font-family="Calibri,Calibri_MSFontService,sans-serif" font-weight="400" font-size="82" transform="matrix(1 0 0 1 59.9959 127)">P2</text><rect x="102.5" y="35.5" width="65" height="65" stroke="#000000" stroke-width="1.3348" stroke-linejoin="round" stroke-miterlimit="10" fill="#B4C7E7" fill-opacity="0.85098"/><text font-family="Calibri,Calibri_MSFontService,sans-serif" font-weight="400" font-size="19" transform="matrix(1 0 0 1 124.875 74)">14</text><text font-family="Calibri,Calibri_MSFontService,sans-serif" font-weight="400" font-size="82" transform="matrix(1 0 0 1 290.939 127)">P3</text><rect x="333.5" y="35.5" width="65" height="64" stroke="#000000" stroke-width="1.3348" stroke-linejoin="round" stroke-miterlimit="10" fill="#B4C7E7" fill-opacity="0.85098"/><text font-family="Calibri,Calibri_MSFontService,sans-serif" font-weight="400" font-size="19" transform="matrix(1 0 0 1 355.758 74)">16</text><rect x="37.5" y="35.5" width="65" height="65" stroke="#000000" stroke-width="1.3348" stroke-linejoin="round" stroke-miterlimit="10" fill="#B4C7E7" fill-opacity="0.85098"/><text font-family="Calibri,Calibri_MSFontService,sans-serif" font-weight="400" font-size="19" transform="matrix(1 0 0 1 60.0218 74)">13</text><rect x="37.5" y="99.5" width="65" height="65" stroke="#000000" stroke-width="1.3348" stroke-linejoin="round" stroke-miterlimit="10" fill="#B4C7E7" fill-opacity="0.85098"/><text font-family="Calibri,Calibri_MSFontService,sans-serif" font-weight="400" font-size="19" transform="matrix(1 0 0 1 64.8604 138)">9</text><rect x="102.5" y="99.5" width="65" height="65" stroke="#000000" stroke-width="1.3348" stroke-linejoin="round" stroke-miterlimit="10" fill="#B4C7E7" fill-opacity="0.85098"/><text font-family="Calibri,Calibri_MSFontService,sans-serif" font-weight="400" font-size="19" transform="matrix(1 0 0 1 124.875 138)">10</text><rect x="268.5" y="34.5" width="65" height="65" stroke="#000000" stroke-width="1.3348" stroke-linejoin="round" stroke-miterlimit="10" fill="#B4C7E7" fill-opacity="0.85098"/><text font-family="Calibri,Calibri_MSFontService,sans-serif" font-weight="400" font-size="19" transform="matrix(1 0 0 1 290.774 73)">15</text><rect x="268.5" y="99.5" width="65" height="65" stroke="#000000" stroke-width="1.3348" stroke-linejoin="round" stroke-miterlimit="10" fill="#B4C7E7" fill-opacity="0.85098"/><text font-family="Calibri,Calibri_MSFontService,sans-serif" font-weight="400" font-size="19" transform="matrix(1 0 0 1 290.904 138)">11</text><rect x="333.5" y="99.5" width="65" height="65" stroke="#000000" stroke-width="1.3348" stroke-linejoin="round" stroke-miterlimit="10" fill="#B4C7E7" fill-opacity="0.85098"/><text font-family="Calibri,Calibri_MSFontService,sans-serif" font-weight="400" font-size="19" transform="matrix(1 0 0 1 355.497 138)">12</text><rect x="37.5" y="263.5" width="65" height="64" stroke="#000000" stroke-width="1.3348" stroke-linejoin="round" stroke-miterlimit="10" fill="#B4C7E7" fill-opacity="0.85098"/><text font-family="Calibri,Calibri_MSFontService,sans-serif" font-weight="400" font-size="19" transform="matrix(1 0 0 1 64.8604 302)">5</text><rect x="37.5" y="327.5" width="65" height="65" stroke="#000000" stroke-width="1.3348" stroke-linejoin="round" stroke-miterlimit="10" fill="#B4C7E7" fill-opacity="0.85098"/><text font-family="Calibri,Calibri_MSFontService,sans-serif" font-weight="400" font-size="19" transform="matrix(1 0 0 1 64.8604 366)">1</text><rect x="102.5" y="327.5" width="65" height="65" stroke="#000000" stroke-width="1.3348" stroke-linejoin="round" stroke-miterlimit="10" fill="#B4C7E7" fill-opacity="0.85098"/><text font-family="Calibri,Calibri_MSFontService,sans-serif" font-weight="400" font-size="19" transform="matrix(1 0 0 1 129.714 366)">2</text><rect x="266.5" y="263.5" width="65" height="65.0001" stroke="#000000" stroke-width="1.3348" stroke-linejoin="round" stroke-miterlimit="10" fill="#B4C7E7" fill-opacity="0.85098"/><text font-family="Calibri,Calibri_MSFontService,sans-serif" font-weight="400" font-size="19" transform="matrix(1 0 0 1 293.786 302)">7</text><rect x="266.5" y="328.5" width="65" height="65" stroke="#000000" stroke-width="1.3348" stroke-linejoin="round" stroke-miterlimit="10" fill="#B4C7E7" fill-opacity="0.85098"/><text font-family="Calibri,Calibri_MSFontService,sans-serif" font-weight="400" font-size="19" transform="matrix(1 0 0 1 293.786 367)">3</text><rect x="331.5" y="328.5" width="65" height="65" stroke="#000000" stroke-width="1.3348" stroke-linejoin="round" stroke-miterlimit="10" fill="#B4C7E7" fill-opacity="0.85098"/><text font-family="Calibri,Calibri_MSFontService,sans-serif" font-weight="400" font-size="19" transform="matrix(1 0 0 1 358.64 367)">4</text><rect x="331.5" y="199.5" width="65" height="63.9999" stroke="#000000" stroke-width="1.3348" stroke-linejoin="round" stroke-miterlimit="10" fill="#FBD7D7" fill-opacity="0.847059"/><text font-family="Calibri,Calibri_MSFontService,sans-serif" font-weight="400" font-size="19" transform="matrix(1 0 0 1 353.801 238)">12</text><rect x="266.5" y="199.5" width="65" height="65" stroke="#000000" stroke-width="1.3348" stroke-linejoin="round" stroke-miterlimit="10" fill="#FBD7D7" fill-opacity="0.847059"/><text font-family="Calibri,Calibri_MSFontService,sans-serif" font-weight="400" font-size="19" transform="matrix(1 0 0 1 288.948 238)">11</text><rect x="201.5" y="199.5" width="65" height="65" stroke="#000000" stroke-width="1.3348" stroke-linejoin="round" stroke-miterlimit="10" fill="#FBD7D7" fill-opacity="0.847059"/><text font-family="Calibri,Calibri_MSFontService,sans-serif" font-weight="400" font-size="19" transform="matrix(1 0 0 1 224.095 238)">10</text><rect x="201.5" y="264.5" width="65" height="64" stroke="#000000" stroke-width="1.3348" stroke-linejoin="round" stroke-miterlimit="10" fill="#FBD7D7" fill-opacity="0.847059"/><text font-family="Calibri,Calibri_MSFontService,sans-serif" font-weight="400" font-size="19" transform="matrix(1 0 0 1 228.933 303)">6</text><rect x="201.5" y="328.5" width="65" height="65" stroke="#000000" stroke-width="1.3348" stroke-linejoin="round" stroke-miterlimit="10" fill="#FBD7D7" fill-opacity="0.847059"/><text font-family="Calibri,Calibri_MSFontService,sans-serif" font-weight="400" font-size="19" transform="matrix(1 0 0 1 228.933 367)">2</text><path d="M264.5 198.5C264.5 197.395 265.395 196.5 266.5 196.5 267.605 196.5 268.5 197.395 268.5 198.5 268.5 199.605 267.605 200.5 266.5 200.5 265.395 200.5 264.5 199.605 264.5 198.5Z" stroke="#172C51" stroke-width="1.3348" stroke-miterlimit="8" fill-rule="evenodd"/><path d="M329.5 198.5C329.5 197.395 330.395 196.5 331.5 196.5 332.605 196.5 333.5 197.395 333.5 198.5 333.5 199.605 332.605 200.5 331.5 200.5 330.395 200.5 329.5 199.605 329.5 198.5Z" stroke="#172C51" stroke-width="1.3348" stroke-miterlimit="8" fill-rule="evenodd"/><path d="M393.5 199.5C393.5 198.395 394.619 197.5 396 197.5 397.381 197.5 398.5 198.395 398.5 199.5 398.5 200.605 397.381 201.5 396 201.5 394.619 201.5 393.5 200.605 393.5 199.5Z" stroke="#172C51" stroke-width="1.3348" stroke-miterlimit="8" fill-rule="evenodd"/><path d="M200.5 199.5C200.5 198.395 201.395 197.5 202.5 197.5 203.605 197.5 204.5 198.395 204.5 199.5 204.5 200.605 203.605 201.5 202.5 201.5 201.395 201.5 200.5 200.605 200.5 199.5Z" stroke="#172C51" stroke-width="1.3348" stroke-miterlimit="8" fill-rule="evenodd"/><path d="M200.5 263.5C200.5 262.395 201.395 261.5 202.5 261.5 203.605 261.5 204.5 262.395 204.5 263.5 204.5 264.605 203.605 265.5 202.5 265.5 201.395 265.5 200.5 264.605 200.5 263.5Z" stroke="#172C51" stroke-width="1.3348" stroke-miterlimit="8" fill-rule="evenodd"/><path d="M264.5 264.5C264.5 263.395 265.395 262.5 266.5 262.5 267.605 262.5 268.5 263.395 268.5 264.5 268.5 265.605 267.605 266.5 266.5 266.5 265.395 266.5 264.5 265.605 264.5 264.5Z" stroke="#172C51" stroke-width="1.3348" stroke-miterlimit="8" fill-rule="evenodd"/><path d="M329.5 263.5C329.5 262.395 330.619 261.5 332 261.5 333.381 261.5 334.5 262.395 334.5 263.5 334.5 264.605 333.381 265.5 332 265.5 330.619 265.5 329.5 264.605 329.5 263.5Z" stroke="#172C51" stroke-width="1.3348" stroke-miterlimit="8" fill-rule="evenodd"/><path d="M393.5 263.5C393.5 262.395 394.619 261.5 396 261.5 397.381 261.5 398.5 262.395 398.5 263.5 398.5 264.605 397.381 265.5 396 265.5 394.619 265.5 393.5 264.605 393.5 263.5Z" stroke="#172C51" stroke-width="1.3348" stroke-miterlimit="8" fill-rule="evenodd"/><path d="M200.5 328.5C200.5 327.395 201.395 326.5 202.5 326.5 203.605 326.5 204.5 327.395 204.5 328.5 204.5 329.605 203.605 330.5 202.5 330.5 201.395 330.5 200.5 329.605 200.5 328.5Z" stroke="#172C51" stroke-width="1.3348" stroke-miterlimit="8" fill-rule="evenodd"/><path d="M264.5 328.5C264.5 327.395 265.395 326.5 266.5 326.5 267.605 326.5 268.5 327.395 268.5 328.5 268.5 329.605 267.605 330.5 266.5 330.5 265.395 330.5 264.5 329.605 264.5 328.5Z" stroke="#172C51" stroke-width="1.3348" stroke-miterlimit="8" fill-rule="evenodd"/><path d="M329.5 328.5C329.5 327.395 330.395 326.5 331.5 326.5 332.605 326.5 333.5 327.395 333.5 328.5 333.5 329.605 332.605 330.5 331.5 330.5 330.395 330.5 329.5 329.605 329.5 328.5Z" stroke="#172C51" stroke-width="1.3348" stroke-miterlimit="8" fill-rule="evenodd"/><path d="M394.5 328.5C394.5 327.395 395.395 326.5 396.5 326.5 397.605 326.5 398.5 327.395 398.5 328.5 398.5 329.605 397.605 330.5 396.5 330.5 395.395 330.5 394.5 329.605 394.5 328.5Z" stroke="#172C51" stroke-width="1.3348" stroke-miterlimit="8" fill-rule="evenodd"/><path d="M199.5 393.5C199.5 392.395 200.395 391.5 201.5 391.5 202.605 391.5 203.5 392.395 203.5 393.5 203.5 394.605 202.605 395.5 201.5 395.5 200.395 395.5 199.5 394.605 199.5 393.5Z" stroke="#172C51" stroke-width="1.3348" stroke-miterlimit="8" fill-rule="evenodd"/><path d="M264.5 393.5C264.5 392.395 265.395 391.5 266.5 391.5 267.605 391.5 268.5 392.395 268.5 393.5 268.5 394.605 267.605 395.5 266.5 395.5 265.395 395.5 264.5 394.605 264.5 393.5Z" stroke="#172C51" stroke-width="1.3348" stroke-miterlimit="8" fill-rule="evenodd"/><path d="M329.5 393C329.5 391.619 330.395 390.5 331.5 390.5 332.605 390.5 333.5 391.619 333.5 393 333.5 394.381 332.605 395.5 331.5 395.5 330.395 395.5 329.5 394.381 329.5 393Z" stroke="#172C51" stroke-width="1.3348" stroke-miterlimit="8" fill-rule="evenodd"/><path d="M394.5 392.5C394.5 391.395 395.395 390.5 396.5 390.5 397.605 390.5 398.5 391.395 398.5 392.5 398.5 393.605 397.605 394.5 396.5 394.5 395.395 394.5 394.5 393.605 394.5 392.5Z" stroke="#172C51" stroke-width="1.3348" stroke-miterlimit="8" fill-rule="evenodd"/><path d="M0.230484-0.241316 12.5077 11.4848 12.0468 11.9674-0.230484 0.241316ZM14.0778 7.90838 17.1036 16.3358 8.54617 13.7Z" transform="matrix(1 0 0 -1 267.5 262.836)"/><path d="M0.230484-0.241316 12.5077 11.4848 12.0468 11.9674-0.230484 0.241316ZM14.0778 7.90838 17.1036 16.3358 8.54617 13.7Z" transform="matrix(1 0 0 -1 203.5 326.836)"/><path d="M0.230484-0.241316 12.5077 11.4848 12.0468 11.9674-0.230484 0.241316ZM14.0778 7.90838 17.1036 16.3358 8.54617 13.7Z" transform="matrix(1 0 0 -1 266.5 327.836)"/><path d="M288.5 160 300 148.5 311.5 160 305.75 160 305.75 213.5 294.25 213.5 294.25 160Z" stroke="#000000" stroke-width="1.0011" stroke-miterlimit="8" fill="#AFABAB" fill-rule="evenodd"/><path d="M163 307.5 151.5 296 163 284.5 163 290.25 216.5 290.25 216.5 301.75 163 301.75Z" stroke="#000000" stroke-width="1.0011" stroke-miterlimit="8" fill="#AFABAB" fill-rule="evenodd"/><text font-family="Calibri,Calibri_MSFontService,sans-serif" font-weight="400" font-size="16" transform="matrix(1 0 0 1 59.0432 213)">Annexed</text><text font-family="Calibri,Calibri_MSFontService,sans-serif" font-weight="400" font-size="16" transform="matrix(1 0 0 1 119.45 213)">dof</text><text font-family="Calibri,Calibri_MSFontService,sans-serif" font-weight="400" font-size="16" transform="matrix(1 0 0 1 131.581 425)">Halo</text><text font-family="Calibri,Calibri_MSFontService,sans-serif" font-weight="400" font-size="16" transform="matrix(1 0 0 1 165.118 425)">dof</text><text font-family="Calibri,Calibri_MSFontService,sans-serif" font-weight="400" font-size="16" transform="matrix(1 0 0 1 276.103 425)">Owned</text><text font-family="Calibri,Calibri_MSFontService,sans-serif" font-weight="400" font-size="16" transform="matrix(1 0 0 1 326.658 425)">dof</text><path d="M0 0 22.9587 78.3097" stroke="#000000" stroke-width="0.667402" stroke-miterlimit="8" fill="none" fill-rule="evenodd" transform="matrix(-1 0 0 1 198.459 330.5)"/><path d="M269.5 332.5 292.632 408.287" stroke="#000000" stroke-width="0.667402" stroke-miterlimit="8" fill="none" fill-rule="evenodd"/><path d="M260.577 261.246 135.5 219.5" stroke="#000000" stroke-width="0.667402" stroke-miterlimit="8" fill="none" fill-rule="evenodd"/><text fill="#C00000" font-family="Calibri,Calibri_MSFontService,sans-serif" font-weight="400" font-size="12" transform="matrix(1 0 0 1 211.45 387)">Halo cells</text><text fill="#0070C0" font-family="Calibri,Calibri_MSFontService,sans-serif" font-weight="400" font-size="12" transform="matrix(1 0 0 1 335.688 387)">Owned cells</text></g></svg>