<svg width="605" height="756" xmlns="http://www.w3.org/2000/svg" xmlns:xlink="http://www.w3.org/1999/xlink" overflow="hidden"><g><rect x="0" y="0" width="605" height="755.75" fill="#FFFFFF"/><path d="M207.5 563.314 319.5 565.313" stroke="#A5A5A5" stroke-width="1.00055" stroke-linejoin="round" stroke-miterlimit="10" fill="none" fill-rule="evenodd"/><path d="M207.5 676.276 318.5 677.276" stroke="#A5A5A5" stroke-width="1.00055" stroke-linejoin="round" stroke-miterlimit="10" fill="none" fill-rule="evenodd"/><path d="M0 0 111.963 0.99959" stroke="#A5A5A5" stroke-width="1.00022" stroke-linejoin="round" stroke-miterlimit="10" fill="none" fill-rule="evenodd" transform="matrix(1.00033 0 0 -1 317.5 465.346)"/><path d="M0 0 110.963 0.999695" stroke="#A5A5A5" stroke-width="1.00022" stroke-linejoin="round" stroke-miterlimit="10" fill="none" fill-rule="evenodd" transform="matrix(1.00033 0 0 -1 318.5 352.384)"/><text font-family="Arial,Arial_MSFontService,sans-serif" font-weight="400" font-size="13" transform="matrix(1 0 0 0.999669 42.014 75)">a)</text><path d="M67.5 111.463 568.5 112.463" stroke="#000000" stroke-width="1.00055" stroke-linejoin="round" stroke-miterlimit="10" fill="none" fill-rule="evenodd"/><path d="M95.5 111.463 96.4999 223.426" stroke="#000000" stroke-width="1.00055" stroke-linejoin="round" stroke-miterlimit="10" fill="none" fill-rule="evenodd"/><path d="M67.5 223.426 569.5 224.426" stroke="#000000" stroke-width="1.00055" stroke-linejoin="round" stroke-miterlimit="10" fill="none" fill-rule="evenodd"/><path d="M206.5 111.463 207.5 223.426" stroke="#000000" stroke-width="1.00055" stroke-linejoin="round" stroke-miterlimit="10" fill="none" fill-rule="evenodd"/><path d="M318.5 111.463 319.5 223.426" stroke="#000000" stroke-width="1.00055" stroke-linejoin="round" stroke-miterlimit="10" fill="none" fill-rule="evenodd"/><path d="M429.5 111.463 430.5 223.426" stroke="#000000" stroke-width="1.00055" stroke-linejoin="round" stroke-miterlimit="10" fill="none" fill-rule="evenodd"/><path d="M540.5 111.463 541.5 223.426" stroke="#000000" stroke-width="1.00055" stroke-linejoin="round" stroke-miterlimit="10" fill="none" fill-rule="evenodd"/><path d="M0.497629-0.0497587 1.49722 9.94699 0.501962 10.0465-0.497629 0.0497587ZM-6.63505 0.663449C-7.00146-3.00099-4.32789-6.26864-0.663449-6.63505 3.00099-7.00146 6.26864-4.32789 6.63505-0.663449 7.00146 3.00099 4.32789 6.26864 0.663449 6.63505-3.00099 7.00146-6.26864 4.32789-6.63505 0.663449Z" transform="matrix(-1.00033 0 0 1 96.4999 111.463)"/><path d="M0.497052-0.0552235 1.49664 8.94182 0.502538 9.05227-0.497052 0.0552235ZM-6.62736 0.736313C-7.03401-2.92388-4.3965-6.22071-0.736313-6.62736 2.92388-7.03401 6.22071-4.3965 6.62736-0.736313 7.03401 2.92388 4.3965 6.22071 0.736313 6.62736-2.92388 7.03401-6.22071 4.3965-6.62736 0.736313Z" transform="matrix(-1.00033 0 0 1 207.5 111.463)"/><path d="M0.497628-0.0497639 1.49732 9.94698 0.502067 10.0465-0.497628 0.0497639ZM-6.63504 0.663518C-7.00149-3.00091-4.32795-6.26859-0.663518-6.63504 3.00091-7.00149 6.26859-4.32795 6.63504-0.663518 7.00149 3.00091 4.32795 6.26859 0.663518 6.63504-3.00091 7.00149-6.26859 4.32795-6.63504 0.663518Z" transform="matrix(-1.00033 0 0 1 318.5 111.463)"/><path d="M0.497629-0.0497587 1.49722 9.94699 0.501962 10.0465-0.497629 0.0497587ZM-6.63505 0.663449C-7.00146-3.00099-4.32789-6.26864-0.663449-6.63505 3.00099-7.00146 6.26864-4.32789 6.63505-0.663449 7.00146 3.00099 4.32789 6.26864 0.663449 6.63505-3.00099 7.00146-6.26864 4.32789-6.63505 0.663449Z" transform="matrix(-1.00033 0 0 1 430.5 111.463)"/><path d="M0.497629-0.0497587 1.49722 9.94699 0.501962 10.0465-0.497629 0.0497587ZM-6.63505 0.663449C-7.00146-3.00099-4.32789-6.26864-0.663449-6.63505 3.00099-7.00146 6.26864-4.32789 6.63505-0.663449 7.00146 3.00099 4.32789 6.26864 0.663449 6.63505-3.00099 7.00146-6.26864 4.32789-6.63505 0.663449Z" transform="matrix(-1.00033 0 0 1 541.5 111.463)"/><path d="M0.498057-0.045274 1.49765 10.9512 0.501534 11.0417-0.498057 0.045274ZM-6.64076 0.603653C-6.97415-3.06394-4.27124-6.30737-0.603653-6.64076 3.06394-6.97415 6.30737-4.27124 6.64076-0.603653 6.97415 3.06394 4.27124 6.30737 0.603653 6.64076-3.06394 6.97415-6.30737 4.27124-6.64076 0.603653Z" transform="matrix(1.00033 0 0 -1 95.5 223.426)"/><path d="M0.498057-0.045274 1.49765 10.9512 0.501534 11.0417-0.498057 0.045274ZM-6.64076 0.603653C-6.97415-3.06394-4.27124-6.30737-0.603653-6.64076 3.06394-6.97415 6.30737-4.27124 6.64076-0.603653 6.97415 3.06394 4.27124 6.30737 0.603653 6.64076-3.06394 6.97415-6.30737 4.27124-6.64076 0.603653Z" transform="matrix(1.00033 0 0 -1 206.5 223.426)"/><path d="M0.498057-0.045274 1.49765 10.9512 0.501534 11.0417-0.498057 0.045274ZM-6.64076 0.603653C-6.97415-3.06394-4.27124-6.30737-0.603653-6.64076 3.06394-6.97415 6.30737-4.27124 6.64076-0.603653 6.97415 3.06394 4.27124 6.30737 0.603653 6.64076-3.06394 6.97415-6.30737 4.27124-6.64076 0.603653Z" transform="matrix(1.00033 0 0 -1 318.5 223.426)"/><path d="M0.498057-0.045274 1.49765 10.9512 0.501534 11.0417-0.498057 0.045274ZM-6.64076 0.603653C-6.97415-3.06394-4.27124-6.30737-0.603653-6.64076 3.06394-6.97415 6.30737-4.27124 6.64076-0.603653 6.97415 3.06394 4.27124 6.30737 0.603653 6.64076-3.06394 6.97415-6.30737 4.27124-6.64076 0.603653Z" transform="matrix(1.00033 0 0 -1 429.5 223.426)"/><path d="M0.498057-0.045274 1.49765 10.9512 0.501534 11.0417-0.498057 0.045274ZM-6.64076 0.603653C-6.97415-3.06394-4.27124-6.30737-0.603653-6.64076 3.06394-6.97415 6.30737-4.27124 6.64076-0.603653 6.97415 3.06394 4.27124 6.30737 0.603653 6.64076-3.06394 6.97415-6.30737 4.27124-6.64076 0.603653Z" transform="matrix(1.00033 0 0 -1 540.5 223.426)"/><path d="M141.5 158.448 160.5 176.442" stroke="#1F497D" stroke-width="5.33627" stroke-linejoin="round" stroke-miterlimit="10" fill="none" fill-rule="evenodd"/><path d="M0 0 18.9937 17.994" stroke="#1F497D" stroke-width="5.33451" stroke-linejoin="round" stroke-miterlimit="10" fill="none" fill-rule="evenodd" transform="matrix(1.00033 0 0 -1 141.5 176.442)"/><path d="M253.5 158.448 271.5 176.442" stroke="#1F497D" stroke-width="5.33627" stroke-linejoin="round" stroke-miterlimit="10" fill="none" fill-rule="evenodd"/><path d="M0 0 17.9941 17.994" stroke="#1F497D" stroke-width="5.33451" stroke-linejoin="round" stroke-miterlimit="10" fill="none" fill-rule="evenodd" transform="matrix(1.00033 0 0 -1 253.5 176.442)"/><path d="M364.5 159.447 382.5 177.441" stroke="#1F497D" stroke-width="5.33627" stroke-linejoin="round" stroke-miterlimit="10" fill="none" fill-rule="evenodd"/><path d="M0 0 17.994 17.9941" stroke="#1F497D" stroke-width="5.33451" stroke-linejoin="round" stroke-miterlimit="10" fill="none" fill-rule="evenodd" transform="matrix(1.00033 0 0 -1 364.5 177.441)"/><path d="M475.5 158.448 494.5 176.442" stroke="#1F497D" stroke-width="5.33627" stroke-linejoin="round" stroke-miterlimit="10" fill="none" fill-rule="evenodd"/><path d="M0 0 18.9937 17.994" stroke="#1F497D" stroke-width="5.33451" stroke-linejoin="round" stroke-miterlimit="10" fill="none" fill-rule="evenodd" transform="matrix(1.00033 0 0 -1 475.5 176.442)"/><text font-family="Arial,Arial_MSFontService,sans-serif" font-weight="400" font-size="8" transform="matrix(1 0 0 0.999669 139.004 221)">Cell15</text><text font-family="Arial,Arial_MSFontService,sans-serif" font-weight="400" font-size="8" transform="matrix(1 0 0 0.999669 250.295 221)">Cell16</text><text font-family="Arial,Arial_MSFontService,sans-serif" font-weight="400" font-size="8" transform="matrix(1 0 0 0.999669 361.585 221)">Cell17</text><text font-family="Arial,Arial_MSFontService,sans-serif" font-weight="400" font-size="8" transform="matrix(1 0 0 0.999669 472.875 221)">Cell18</text><text font-family="Arial,Arial_MSFontService,sans-serif" font-weight="400" font-size="8" transform="matrix(1 0 0 0.999669 305.523 101)">Vert35</text><text font-family="Arial,Arial_MSFontService,sans-serif" font-weight="400" font-size="8" transform="matrix(1 0 0 0.999669 305.523 247)">Vert34</text><text font-family="Arial,Arial_MSFontService,sans-serif" font-weight="400" font-size="8" transform="matrix(1 0 0 0.999669 416.813 247)">Vert36</text><text font-family="Arial,Arial_MSFontService,sans-serif" font-weight="400" font-size="8" transform="matrix(1 0 0 0.999669 528.104 247)">Vert38</text><text font-family="Arial,Arial_MSFontService,sans-serif" font-weight="400" font-size="8" transform="matrix(1 0 0 0.999669 528.104 101)">Vert38</text><text font-family="Arial,Arial_MSFontService,sans-serif" font-weight="400" font-size="8" transform="matrix(1 0 0 0.999669 416.813 101)">Vert37</text><text font-family="Arial,Arial_MSFontService,sans-serif" font-weight="400" font-size="8" transform="matrix(1 0 0 0.999669 194.233 247)">Vert32</text><text font-family="Arial,Arial_MSFontService,sans-serif" font-weight="400" font-size="8" transform="matrix(1 0 0 0.999669 194.233 101)">Vert33</text><text font-family="Arial,Arial_MSFontService,sans-serif" font-weight="400" font-size="8" transform="matrix(1 0 0 0.999669 82.9424 247)">Vert30</text><text font-family="Arial,Arial_MSFontService,sans-serif" font-weight="400" font-size="8" transform="matrix(1 0 0 0.999669 82.9424 101)">Vert31</text><path d="M317 27.9907 318 259.914" stroke="#FF0000" stroke-width="4.0022" stroke-linejoin="round" stroke-miterlimit="10" stroke-dasharray="16.0088 12.0066" fill="none" fill-rule="evenodd"/><text fill="#1F497D" font-family="Arial,Arial_MSFontService,sans-serif" font-weight="400" font-size="8" transform="matrix(1 0 0 0.999669 117.1 173)">Vol15</text><text fill="#1F497D" font-family="Arial,Arial_MSFontService,sans-serif" font-weight="400" font-size="8" transform="matrix(1 0 0 0.999669 228.227 173)">Vol16</text><text fill="#1F497D" font-family="Arial,Arial_MSFontService,sans-serif" font-weight="400" font-size="8" transform="matrix(1 0 0 0.999669 339.763 173)">Vol17</text><text fill="#1F497D" font-family="Arial,Arial_MSFontService,sans-serif" font-weight="400" font-size="8" transform="matrix(1 0 0 0.999669 451.136 173)">Vol18</text><text fill="#FF0000" font-family="Arial,Arial_MSFontService,sans-serif" font-weight="400" font-size="16" transform="matrix(1 0 0 0.999669 197.129 61)">Partition 1</text><text fill="#FF0000" font-family="Arial,Arial_MSFontService,sans-serif" font-weight="400" font-size="16" transform="matrix(1 0 0 0.999669 363.901 61)">Partition 2</text><path d="M131.574 149.411 112.217 130.751 114.069 128.831 133.426 147.491ZM109.473 135.517 104.5 121.46 118.733 125.917Z" fill="#4E6128"/><path d="M243.574 149.411 224.217 130.751 226.069 128.831 245.426 147.491ZM221.473 135.517 216.5 121.46 230.733 125.917Z" fill="#4E6128"/><path d="M354.574 149.411 335.217 130.751 337.069 128.831 356.426 147.491ZM332.473 135.517 327.5 121.46 341.733 125.917Z" fill="#4E6128"/><path d="M465.557 149.394 446.047 129.89 447.933 128.004 467.443 147.508ZM443.217 134.605 438.5 120.46 452.65 125.175Z" fill="#4E6128"/><path d="M0.943017-0.943017 20.4466 18.5606 18.5606 20.4466-0.943017 0.943017ZM23.2757 13.8455 27.9907 27.9907 13.8455 23.2757Z" fill="#4E6128" transform="matrix(1.00033 0 0 -1 169.5 148.451)"/><path d="M0.943015-0.943019 19.447 17.5609 17.561 19.4469-0.943015 0.943019ZM22.276 12.8458 26.9911 26.991 12.8459 22.276Z" fill="#4E6128" transform="matrix(1.00033 0 0 -1 281.5 148.451)"/><path d="M0.943017-0.943017 20.4466 18.5606 18.5606 20.4466-0.943017 0.943017ZM23.2757 13.8455 27.9907 27.9907 13.8455 23.2757Z" fill="#4E6128" transform="matrix(1.00033 0 0 -1 392.5 148.451)"/><path d="M0.943017-0.943017 20.4466 18.5606 18.5606 20.4466-0.943017 0.943017ZM23.2757 13.8455 27.9907 27.9907 13.8455 23.2757Z" fill="#4E6128" transform="matrix(1.00033 0 0 -1 503.5 148.451)"/><path d="M0.925718-0.960004 20.2764 17.6996 18.425 19.6196-0.925718 0.960004ZM23.0193 12.9338 27.9907 26.991 13.7621 22.5339Z" fill="#4E6128" transform="matrix(-1.00033 0 0 1 132.5 185.439)"/><path d="M0.925718-0.960004 20.2764 17.6996 18.425 19.6196-0.925718 0.960004ZM23.0193 12.9338 27.9907 26.991 13.7621 22.5339Z" fill="#4E6128" transform="matrix(-1.00033 0 0 1 244.5 185.439)"/><path d="M0.925718-0.960004 20.2764 17.6996 18.425 19.6196-0.925718 0.960004ZM23.0193 12.9338 27.9907 26.991 13.7621 22.5339Z" fill="#4E6128" transform="matrix(-1.00033 0 0 1 355.5 185.439)"/><path d="M0.925718-0.960004 20.2764 17.6996 18.425 19.6196-0.925718 0.960004ZM23.0193 12.9338 27.9907 26.991 13.7621 22.5339Z" fill="#4E6128" transform="matrix(-1.00033 0 0 1 466.5 185.439)"/><path d="M170.426 184.479 189.783 203.138 187.931 205.058 168.574 186.399ZM192.527 198.373 197.5 212.43 183.267 207.973Z" fill="#4E6128"/><path d="M282.443 184.496 300.953 203 299.067 204.886 280.557 186.382ZM303.783 198.284 308.5 212.43 294.35 207.715Z" fill="#4E6128"/><path d="M393.426 184.479 412.783 203.138 410.931 205.058 391.574 186.399ZM415.527 198.373 420.5 212.43 406.267 207.973Z" fill="#4E6128"/><path d="M504.408 185.461 523.609 203.285 521.794 205.24 502.592 187.416ZM526.263 198.469 531.5 212.43 517.185 208.241Z" fill="#4E6128"/><path d="M67.5 352.384 318.5 353.383" stroke="#000000" stroke-width="1.00055" stroke-linejoin="round" stroke-miterlimit="10" fill="none" fill-rule="evenodd"/><path d="M95.5 352.384 96.4999 464.346" stroke="#000000" stroke-width="1.00055" stroke-linejoin="round" stroke-miterlimit="10" fill="none" fill-rule="evenodd"/><path d="M67.5 464.346 310.5 465.346" stroke="#000000" stroke-width="1.00055" stroke-linejoin="round" stroke-miterlimit="10" fill="none" fill-rule="evenodd"/><path d="M206.5 352.384 207.5 464.346" stroke="#000000" stroke-width="1.00055" stroke-linejoin="round" stroke-miterlimit="10" fill="none" fill-rule="evenodd"/><path d="M318.5 352.384 319.5 464.346" stroke="#000000" stroke-width="1.00055" stroke-linejoin="round" stroke-miterlimit="10" fill="none" fill-rule="evenodd"/><path d="M429.5 351.384 430.5 462.347" stroke="#A5A5A5" stroke-width="1.00055" stroke-linejoin="round" stroke-miterlimit="10" fill="none" fill-rule="evenodd"/><path d="M0.497629-0.0497592 1.49722 9.94688 0.501962 10.0464-0.497629 0.0497592ZM-6.63505 0.663456C-7.00147-3.00098-4.32789-6.26863-0.663456-6.63505 3.00098-7.00147 6.26863-4.32789 6.63505-0.663456 7.00147 3.00098 4.32789 6.26863 0.663456 6.63505-3.00098 7.00147-6.26863 4.32789-6.63505 0.663456Z" transform="matrix(-1.00033 0 0 1 96.4999 352.384)"/><path d="M0.497629-0.0497592 1.49722 9.94688 0.501962 10.0464-0.497629 0.0497592ZM-6.63505 0.663456C-7.00147-3.00098-4.32789-6.26863-0.663456-6.63505 3.00098-7.00147 6.26863-4.32789 6.63505-0.663456 7.00147 3.00098 4.32789 6.26863 0.663456 6.63505-3.00098 7.00147-6.26863 4.32789-6.63505 0.663456Z" transform="matrix(-1.00033 0 0 1 207.5 352.384)"/><path d="M0.497629-0.0497592 1.49722 9.94688 0.501962 10.0464-0.497629 0.0497592ZM-6.63505 0.663456C-7.00147-3.00098-4.32789-6.26863-0.663456-6.63505 3.00098-7.00147 6.26863-4.32789 6.63505-0.663456 7.00147 3.00098 4.32789 6.26863 0.663456 6.63505-3.00098 7.00147-6.26863 4.32789-6.63505 0.663456Z" transform="matrix(-1.00033 0 0 1 319.5 352.384)"/><path d="M0.497629-0.0497592 1.49722 9.94688 0.501962 10.0464-0.497629 0.0497592ZM-6.63505 0.663456C-7.00147-3.00098-4.32789-6.26863-0.663456-6.63505 3.00098-7.00147 6.26863-4.32789 6.63505-0.663456 7.00147 3.00098 4.32789 6.26863 0.663456 6.63505-3.00098 7.00147-6.26863 4.32789-6.63505 0.663456Z" fill="#A5A5A5" transform="matrix(-1.00033 0 0 1 430.5 352.384)"/><path d="M0.498057-0.0452744 1.49765 10.9511 0.501534 11.0416-0.498057 0.0452744ZM-6.64076 0.603659C-6.97415-3.06393-4.27125-6.30736-0.603659-6.64076 3.06393-6.97415 6.30736-4.27125 6.64076-0.603659 6.97415 3.06393 4.27125 6.30736 0.603659 6.64076-3.06393 6.97415-6.30736 4.27125-6.64076 0.603659Z" transform="matrix(1.00033 0 0 -1 95.5 464.346)"/><path d="M0.498057-0.0452744 1.49765 10.9511 0.501534 11.0416-0.498057 0.0452744ZM-6.64076 0.603659C-6.97415-3.06393-4.27125-6.30736-0.603659-6.64076 3.06393-6.97415 6.30736-4.27125 6.64076-0.603659 6.97415 3.06393 4.27125 6.30736 0.603659 6.64076-3.06393 6.97415-6.30736 4.27125-6.64076 0.603659Z" transform="matrix(1.00033 0 0 -1 206.5 464.346)"/><path d="M0.498057-0.0452744 1.49765 10.9511 0.501534 11.0416-0.498057 0.0452744ZM-6.64076 0.603659C-6.97415-3.06393-4.27125-6.30736-0.603659-6.64076 3.06393-6.97415 6.30736-4.27125 6.64076-0.603659 6.97415 3.06393 4.27125 6.30736 0.603659 6.64076-3.06393 6.97415-6.30736 4.27125-6.64076 0.603659Z" transform="matrix(1.00033 0 0 -1 318.5 464.346)"/><path d="M-5.96429 2.98183C-7.61111-0.312155-6.27582-4.31747-2.98183-5.96429 0.312155-7.61111 4.31747-6.27582 5.96429-2.98183 7.61111 0.312155 6.27582 4.31747 2.98183 5.96429-0.312155 7.61111-4.31747 6.27582-5.96429 2.98183Z" fill="#A5A5A5" transform="matrix(1.00033 0 0 -1 429.5 464.346)"/><path d="M141.5 399.368 160.5 417.362" stroke="#1F497D" stroke-width="5.33627" stroke-linejoin="round" stroke-miterlimit="10" fill="none" fill-rule="evenodd"/><path d="M0 0 18.9937 17.994" stroke="#1F497D" stroke-width="5.33451" stroke-linejoin="round" stroke-miterlimit="10" fill="none" fill-rule="evenodd" transform="matrix(1.00033 0 0 -1 141.5 417.362)"/><path d="M253.5 399.368 271.5 417.362" stroke="#1F497D" stroke-width="5.33627" stroke-linejoin="round" stroke-miterlimit="10" fill="none" fill-rule="evenodd"/><path d="M0 0 17.9941 17.994" stroke="#1F497D" stroke-width="5.33451" stroke-linejoin="round" stroke-miterlimit="10" fill="none" fill-rule="evenodd" transform="matrix(1.00033 0 0 -1 253.5 417.362)"/><path d="M364.5 400.368 383.5 418.362" stroke="#95B3D7" stroke-width="5.33627" stroke-linejoin="round" stroke-miterlimit="10" fill="none" fill-rule="evenodd"/><path d="M0 0 18.9937 17.994" stroke="#95B3D7" stroke-width="5.33451" stroke-linejoin="round" stroke-miterlimit="10" fill="none" fill-rule="evenodd" transform="matrix(1.00033 0 0 -1 364.5 418.362)"/><text font-family="Arial,Arial_MSFontService,sans-serif" font-weight="400" font-size="8" transform="matrix(1 0 0 0.999669 138.001 462)">Cellt15</text><text font-family="Arial,Arial_MSFontService,sans-serif" font-weight="400" font-size="8" transform="matrix(1 0 0 0.999669 250.459 461)">Cell16</text><text fill="#A6A6A6" font-family="Arial,Arial_MSFontService,sans-serif" font-weight="400" font-size="8" transform="matrix(1 0 0 0.999669 361.749 462)">Cell17</text><text font-family="Arial,Arial_MSFontService,sans-serif" font-weight="400" font-size="8" transform="matrix(1 0 0 0.999669 305.687 342)">Vert35</text><text font-family="Arial,Arial_MSFontService,sans-serif" font-weight="400" font-size="8" transform="matrix(1 0 0 0.999669 305.687 488)">Vert34</text><text fill="#A6A6A6" font-family="Arial,Arial_MSFontService,sans-serif" font-weight="400" font-size="8" transform="matrix(1 0 0 0.999669 416.978 488)">Vert36</text><text fill="#A6A6A6" font-family="Arial,Arial_MSFontService,sans-serif" font-weight="400" font-size="8" transform="matrix(1 0 0 0.999669 416.978 342)">Vert37</text><text font-family="Arial,Arial_MSFontService,sans-serif" font-weight="400" font-size="8" transform="matrix(1 0 0 0.999669 194.397 488)">Vert32</text><text font-family="Arial,Arial_MSFontService,sans-serif" font-weight="400" font-size="8" transform="matrix(1 0 0 0.999669 194.397 342)">Vert33</text><text font-family="Arial,Arial_MSFontService,sans-serif" font-weight="400" font-size="8" transform="matrix(1 0 0 0.999669 83.1065 488)">Vert30</text><text font-family="Arial,Arial_MSFontService,sans-serif" font-weight="400" font-size="8" transform="matrix(1 0 0 0.999669 83.1065 343)">Vert31</text><text fill="#1F497D" font-family="Arial,Arial_MSFontService,sans-serif" font-weight="400" font-size="8" transform="matrix(1 0 0 0.999669 117.265 414)">Vol15</text><text fill="#1F497D" font-family="Arial,Arial_MSFontService,sans-serif" font-weight="400" font-size="8" transform="matrix(1 0 0 0.999669 228.391 414)">Vol16</text><text fill="#A6A6A6" font-family="Arial,Arial_MSFontService,sans-serif" font-weight="400" font-size="8" transform="matrix(1 0 0 0.999669 339.927 414)">Vol17</text><path d="M131.54 391.297 112.874 371.946 114.795 370.094 133.46 389.445ZM109.959 376.609 105.5 362.38 119.562 367.352Z" fill="#4E6128"/><path d="M243.557 391.314 224.047 371.81 225.933 369.924 245.443 389.428ZM221.217 376.525 216.5 362.38 230.65 367.095Z" fill="#4E6128"/><path d="M354.557 391.314 335.047 371.81 336.933 369.924 356.443 389.428ZM332.217 376.525 327.5 362.38 341.65 367.095Z" fill="#9BBB59"/><path d="M0.943017-0.943017 20.4466 18.5606 18.5606 20.4466-0.943017 0.943017ZM23.2757 13.8455 27.9907 27.9907 13.8455 23.2757Z" fill="#4E6128" transform="matrix(1.00033 0 0 -1 169.5 390.371)"/><path d="M0.943017-0.943017 20.4466 18.5606 18.5606 20.4466-0.943017 0.943017ZM23.2757 13.8455 27.9907 27.9907 13.8455 23.2757Z" fill="#4E6128" transform="matrix(1.00033 0 0 -1 281.5 390.371)"/><path d="M0.925718-0.960004 20.2764 17.6996 18.425 19.6196-0.925718 0.960004ZM23.0193 12.9338 27.9907 26.991 13.7621 22.5339Z" fill="#9BBB59" transform="matrix(1.00033 0 0 -1 392.5 389.371)"/><path d="M0.925061-0.960637 19.2704 16.7053 17.4202 18.6265-0.925061 0.960637ZM22.01 11.9377 26.991 25.9915 12.7594 21.544Z" fill="#4E6128" transform="matrix(-1.00033 0 0 1 132.5 427.359)"/><path d="M0.907469-0.977273 20.1027 16.847 18.2878 18.8015-0.907469 0.977273ZM22.7554 12.0304 27.9907 25.9915 13.6807 21.8031Z" fill="#4E6128" transform="matrix(-1.00033 0 0 1 244.5 427.359)"/><path d="M0.907469-0.977273 20.1027 16.847 18.2878 18.8015-0.907469 0.977273ZM22.7554 12.0304 27.9907 25.9915 13.6807 21.8031Z" fill="#9BBB59" transform="matrix(-1.00033 0 0 1 355.5 427.359)"/><path d="M170.408 426.381 189.609 444.206 187.794 446.16 168.592 428.336ZM192.263 439.389 197.5 453.35 183.185 449.162Z" fill="#4E6128"/><path d="M282.408 426.381 301.609 444.206 299.794 446.16 280.592 428.336ZM304.263 439.389 309.5 453.35 295.185 449.162Z" fill="#4E6128"/><path d="M393.408 426.381 412.609 444.206 410.794 446.16 391.592 428.336ZM415.263 439.389 420.5 453.35 406.185 449.162Z" fill="#9BBB59"/><path d="M319.5 565.313 569.5 566.313" stroke="#000000" stroke-width="1.00055" stroke-linejoin="round" stroke-miterlimit="10" fill="none" fill-rule="evenodd"/><path d="M319.5 676.276 569.5 677.276" stroke="#000000" stroke-width="1.00055" stroke-linejoin="round" stroke-miterlimit="10" fill="none" fill-rule="evenodd"/><path d="M207.5 564.313 208.5 676.276" stroke="#A5A5A5" stroke-width="1.00055" stroke-linejoin="round" stroke-miterlimit="10" fill="none" fill-rule="evenodd"/><path d="M319.5 565.313 320.5 676.276" stroke="#000000" stroke-width="1.00055" stroke-linejoin="round" stroke-miterlimit="10" fill="none" fill-rule="evenodd"/><path d="M430.5 565.313 431.5 676.276" stroke="#000000" stroke-width="1.00055" stroke-linejoin="round" stroke-miterlimit="10" fill="none" fill-rule="evenodd"/><path d="M541.5 564.313 542.5 676.276" stroke="#000000" stroke-width="1.00055" stroke-linejoin="round" stroke-miterlimit="10" fill="none" fill-rule="evenodd"/><path d="M0.497629-0.0497587 1.49722 9.94699 0.501962 10.0465-0.497629 0.0497587ZM-6.63505 0.663449C-7.00146-3.00099-4.32789-6.26864-0.663449-6.63505 3.00099-7.00146 6.26864-4.32789 6.63505-0.663449 7.00146 3.00099 4.32789 6.26864 0.663449 6.63505-3.00099 7.00146-6.26864 4.32789-6.63505 0.663449Z" fill="#A5A5A5" transform="matrix(-1.00033 0 0 1 208.5 564.313)"/><path d="M0.497052-0.0552235 1.49664 8.94182 0.502538 9.05227-0.497052 0.0552235ZM-6.62736 0.736313C-7.03401-2.92388-4.3965-6.22071-0.736313-6.62736 2.92388-7.03401 6.22071-4.3965 6.62736-0.736313 7.03401 2.92388 4.3965 6.22071 0.736313 6.62736-2.92388 7.03401-6.22071 4.3965-6.62736 0.736313Z" transform="matrix(-1.00033 0 0 1 320.5 565.313)"/><path d="M0.497052-0.0552235 1.49664 8.94182 0.502538 9.05227-0.497052 0.0552235ZM-6.62736 0.736313C-7.03401-2.92388-4.3965-6.22071-0.736313-6.62736 2.92388-7.03401 6.22071-4.3965 6.62736-0.736313 7.03401 2.92388 4.3965 6.22071 0.736313 6.62736-2.92388 7.03401-6.22071 4.3965-6.62736 0.736313Z" transform="matrix(-1.00033 0 0 1 431.5 565.313)"/><path d="M0.497052-0.0552235 1.49664 8.94182 0.502538 9.05227-0.497052 0.0552235ZM-6.62736 0.736313C-7.03401-2.92388-4.3965-6.22071-0.736313-6.62736 2.92388-7.03401 6.22071-4.3965 6.62736-0.736313 7.03401 2.92388 4.3965 6.22071 0.736313 6.62736-2.92388 7.03401-6.22071 4.3965-6.62736 0.736313Z" transform="matrix(-1.00033 0 0 1 542.5 565.313)"/><path d="M0.498057-0.0452744 1.49765 10.9511 0.501534 11.0416-0.498057 0.0452744ZM-6.64076 0.603659C-6.97415-3.06393-4.27125-6.30736-0.603659-6.64076 3.06393-6.97415 6.30736-4.27125 6.64076-0.603659 6.97415 3.06393 4.27125 6.30736 0.603659 6.64076-3.06393 6.97415-6.30736 4.27125-6.64076 0.603659Z" fill="#A5A5A5" transform="matrix(1.00033 0 0 -1 207.5 676.276)"/><path d="M0.498057-0.0452744 1.49765 10.9511 0.501534 11.0416-0.498057 0.0452744ZM-6.64076 0.603659C-6.97415-3.06393-4.27125-6.30736-0.603659-6.64076 3.06393-6.97415 6.30736-4.27125 6.64076-0.603659 6.97415 3.06393 4.27125 6.30736 0.603659 6.64076-3.06393 6.97415-6.30736 4.27125-6.64076 0.603659Z" transform="matrix(1.00033 0 0 -1 319.5 676.276)"/><path d="M0.498057-0.0452744 1.49765 10.9511 0.501534 11.0416-0.498057 0.0452744ZM-6.64076 0.603659C-6.97415-3.06393-4.27125-6.30736-0.603659-6.64076 3.06393-6.97415 6.30736-4.27125 6.64076-0.603659 6.97415 3.06393 4.27125 6.30736 0.603659 6.64076-3.06393 6.97415-6.30736 4.27125-6.64076 0.603659Z" transform="matrix(1.00033 0 0 -1 430.5 676.276)"/><path d="M0.498057-0.0452744 1.49765 10.9511 0.501534 11.0416-0.498057 0.0452744ZM-6.64076 0.603659C-6.97415-3.06393-4.27125-6.30736-0.603659-6.64076 3.06393-6.97415 6.30736-4.27125 6.64076-0.603659 6.97415 3.06393 4.27125 6.30736 0.603659 6.64076-3.06393 6.97415-6.30736 4.27125-6.64076 0.603659Z" transform="matrix(1.00033 0 0 -1 541.5 676.276)"/><path d="M254.5 611.298 272.5 629.292" stroke="#95B3D7" stroke-width="5.33627" stroke-linejoin="round" stroke-miterlimit="10" fill="none" fill-rule="evenodd"/><path d="M0 0 17.994 17.9941" stroke="#95B3D7" stroke-width="5.33451" stroke-linejoin="round" stroke-miterlimit="10" fill="none" fill-rule="evenodd" transform="matrix(1.00033 0 0 -1 254.5 629.292)"/><path d="M365.5 612.297 384.5 631.291" stroke="#1F497D" stroke-width="5.33627" stroke-linejoin="round" stroke-miterlimit="10" fill="none" fill-rule="evenodd"/><path d="M0 0 18.9938 18.9937" stroke="#1F497D" stroke-width="5.33451" stroke-linejoin="round" stroke-miterlimit="10" fill="none" fill-rule="evenodd" transform="matrix(1.00033 0 0 -1 365.5 631.291)"/><path d="M476.5 611.298 495.5 629.292" stroke="#1F497D" stroke-width="5.33627" stroke-linejoin="round" stroke-miterlimit="10" fill="none" fill-rule="evenodd"/><path d="M0 0 18.9937 17.9941" stroke="#1F497D" stroke-width="5.33451" stroke-linejoin="round" stroke-miterlimit="10" fill="none" fill-rule="evenodd" transform="matrix(1.00033 0 0 -1 476.5 629.292)"/><text fill="#A6A6A6" font-family="Arial,Arial_MSFontService,sans-serif" font-weight="400" font-size="8" transform="matrix(1 0 0 0.999669 251.444 673)">Cell16</text><text font-family="Arial,Arial_MSFontService,sans-serif" font-weight="400" font-size="8" transform="matrix(1 0 0 0.999669 362.734 674)">Cell17</text><text font-family="Arial,Arial_MSFontService,sans-serif" font-weight="400" font-size="8" transform="matrix(1 0 0 0.999669 474.024 673)">Cell18</text><text font-family="Arial,Arial_MSFontService,sans-serif" font-weight="400" font-size="8" transform="matrix(1 0 0 0.999669 306.672 554)">Vert35</text><text font-family="Arial,Arial_MSFontService,sans-serif" font-weight="400" font-size="8" transform="matrix(1 0 0 0.999669 306.672 700)">Vert34</text><text font-family="Arial,Arial_MSFontService,sans-serif" font-weight="400" font-size="8" transform="matrix(1 0 0 0.999669 417.962 700)">Vert36</text><text font-family="Arial,Arial_MSFontService,sans-serif" font-weight="400" font-size="8" transform="matrix(1 0 0 0.999669 529.253 700)">Vert38</text><text font-family="Arial,Arial_MSFontService,sans-serif" font-weight="400" font-size="8" transform="matrix(1 0 0 0.999669 529.253 554)">Vert38</text><text font-family="Arial,Arial_MSFontService,sans-serif" font-weight="400" font-size="8" transform="matrix(1 0 0 0.999669 417.962 554)">Vert37</text><text fill="#A6A6A6" font-family="Arial,Arial_MSFontService,sans-serif" font-weight="400" font-size="8" transform="matrix(1 0 0 0.999669 195.382 700)">Vert32</text><text fill="#A6A6A6" font-family="Arial,Arial_MSFontService,sans-serif" font-weight="400" font-size="8" transform="matrix(1 0 0 0.999669 195.382 554)">Vert33</text><text fill="#A6A6A6" font-family="Arial,Arial_MSFontService,sans-serif" font-weight="400" font-size="8" transform="matrix(1 0 0 0.999669 229.376 626)">Vol16</text><text fill="#1F497D" font-family="Arial,Arial_MSFontService,sans-serif" font-weight="400" font-size="8" transform="matrix(1 0 0 0.999669 340.912 626)">Vol17</text><text fill="#1F497D" font-family="Arial,Arial_MSFontService,sans-serif" font-weight="400" font-size="8" transform="matrix(1 0 0 0.999669 452.285 626)">Vol18</text><path d="M244.557 603.244 225.047 583.74 226.933 581.854 246.443 601.358ZM222.217 588.455 217.5 574.31 231.65 579.025Z" fill="#9BBB59"/><path d="M355.557 603.244 336.047 583.74 337.933 581.854 357.443 601.358ZM333.217 588.455 328.5 574.31 342.65 579.025Z" fill="#4E6128"/><path d="M466.557 603.244 447.047 583.74 448.933 581.854 468.443 601.358ZM444.217 588.455 439.5 574.31 453.65 579.025Z" fill="#4E6128"/><path d="M0.943017-0.943017 20.4466 18.5606 18.5606 20.4466-0.943017 0.943017ZM23.2757 13.8455 27.9907 27.9907 13.8455 23.2757Z" fill="#9BBB59" transform="matrix(1.00033 0 0 -1 282.5 602.301)"/><path d="M0.943017-0.943017 20.4466 18.5606 18.5606 20.4466-0.943017 0.943017ZM23.2757 13.8455 27.9907 27.9907 13.8455 23.2757Z" fill="#4E6128" transform="matrix(1.00033 0 0 -1 393.5 602.301)"/><path d="M0.943017-0.943017 20.4466 18.5606 18.5606 20.4466-0.943017 0.943017ZM23.2757 13.8455 27.9907 27.9907 13.8455 23.2757Z" fill="#4E6128" transform="matrix(1.00033 0 0 -1 504.5 602.301)"/><path d="M0.907469-0.977273 20.1027 16.847 18.2878 18.8015-0.907469 0.977273ZM22.7554 12.0304 27.9907 25.9915 13.6807 21.8031Z" fill="#9BBB59" transform="matrix(-1.00033 0 0 1 245.5 639.289)"/><path d="M0.907469-0.977273 20.1027 16.847 18.2878 18.8015-0.907469 0.977273ZM22.7554 12.0304 27.9907 25.9915 13.6807 21.8031Z" fill="#4E6128" transform="matrix(-1.00033 0 0 1 356.5 639.289)"/><path d="M0.907469-0.977273 20.1027 16.847 18.2878 18.8015-0.907469 0.977273ZM22.7554 12.0304 27.9907 25.9915 13.6807 21.8031Z" fill="#4E6128" transform="matrix(-1.00033 0 0 1 467.5 639.289)"/><path d="M283.408 638.311 302.609 656.135 300.794 658.09 281.592 640.266ZM305.263 651.319 310.5 665.28 296.185 661.092Z" fill="#9BBB59"/><path d="M394.408 638.311 413.609 656.135 411.794 658.09 392.592 640.266ZM416.263 651.319 421.5 665.28 407.185 661.092Z" fill="#4E6128"/><path d="M505.408 638.311 524.609 656.135 522.794 658.09 503.592 640.266ZM527.263 651.319 532.5 665.28 518.185 661.092Z" fill="#4E6128"/><path d="M318 314.896 319 713.764" stroke="#FF0000" stroke-width="4.0022" stroke-linejoin="round" stroke-miterlimit="10" stroke-dasharray="16.0088 12.0066" fill="none" fill-rule="evenodd"/><text font-family="Arial,Arial_MSFontService,sans-serif" font-weight="400" font-size="13" transform="matrix(1 0 0 0.999669 42.014 325)">b)</text><text fill="#A6A6A6" font-family="Arial,Arial_MSFontService,sans-serif" font-weight="400" font-size="16" transform="matrix(1 0 0 0.999669 353.806 339)">Halo</text><text fill="#A6A6A6" font-family="Arial,Arial_MSFontService,sans-serif" font-weight="400" font-size="16" transform="matrix(1 0 0 0.999669 243.664 552)">Halo</text></g></svg>